<svg id="Слой_1" data-name="Слой 1" xmlns="http://www.w3.org/2000/svg" viewBox="0 0 1451.34 1451.34"><defs><style>.cls-1{fill:#fff;}</style></defs><title>preloader</title><path class="cls-1" d="M1448.28,723.67a732,732,0,0,1-14.48,141.64A721.76,721.76,0,0,1,58.32,998.44a712.7,712.7,0,0,1-40.2-134.82A721.44,721.44,0,0,1,19.35,584,711.76,711.76,0,0,1,1375.78,452.73a702.7,702.7,0,0,1,39.62,132.93,712.64,712.64,0,0,1,12.88,138Zm-20,0a712,712,0,0,0-14.1-137.76A701.76,701.76,0,0,0,76.8,456.57a692.69,692.69,0,0,0-39.05,131A701.44,701.44,0,0,0,39,859.49,691.76,691.76,0,0,0,1357.31,986.94a682.69,682.69,0,0,0,38.48-129.15,692.64,692.64,0,0,0,12.5-134.12Z"/></svg>