<svg id="PHONE" xmlns="http://www.w3.org/2000/svg" viewBox="0 0 1451.34 1451.34"><defs><style>.cls-1{fill:#fff;}</style></defs><title>phone</title><path class="cls-1" d="M1358.25,1110.18,1153.69,905.6c-40.74-40.58-108.21-39.35-150.37,2.83l-103.06,103c-6.51-3.58-13.25-7.33-20.34-11.31C814.84,964.09,725.77,914.67,632,820.87c-94-94-143.47-183.2-179.64-248.32-3.82-6.9-7.48-13.56-11.09-19.87l69.17-69.07,34-34c42.23-42.24,43.4-109.69,2.75-150.39L342.67,94.58C302,53.94,234.52,55.17,192.29,97.41l-57.65,58,1.58,1.56a333.16,333.16,0,0,0-47.51,83.8c-11.08,29.2-18,57.07-21.13,85-27,223.92,75.31,428.57,353,706.27,383.86,383.84,693.21,354.84,706.55,353.42a345.58,345.58,0,0,0,85.23-21.41,332.22,332.22,0,0,0,83.49-47.3l1.26,1.12,58.41-57.19C1397.67,1218.42,1398.88,1150.94,1358.25,1110.18Z"/></svg>